<?xml version="1.0" standalone="no"?>
<!DOCTYPE svg PUBLIC "-//W3C//DTD SVG 20010904//EN"
 "http://www.w3.org/TR/2001/REC-SVG-20010904/DTD/svg10.dtd">
<svg version="1.0" xmlns="http://www.w3.org/2000/svg"
 width="500.000000pt" height="500.000000pt" viewBox="0 0 500.000000 500.000000"
 preserveAspectRatio="xMidYMid meet">

<g transform="translate(0.000000,500.000000) scale(0.100000,-0.100000)"
fill="#000000" stroke="none">
<path d="M1607 3678 c-9 -7 -21 -26 -27 -41 -14 -38 -14 -861 0 -888 10 -18
26 -19 499 -19 405 0 491 2 500 14 8 10 11 134 9 461 l-3 447 -24 19 c-22 18
-45 19 -480 19 -350 0 -461 -3 -474 -12z"/>
<path d="M2703 3505 l-23 -16 0 -425 0 -424 -215 0 -215 0 25 -38 c13 -20 27
-52 31 -70 l7 -32 229 0 c209 0 229 2 234 18 39 122 118 184 235 184 102 0
207 -80 225 -172 l7 -30 113 0 c129 0 144 7 144 70 0 61 -7 70 -56 70 l-44 0
0 208 c0 116 -5 224 -11 245 -6 22 -53 103 -106 180 -163 241 -161 241 -393
245 -139 3 -169 1 -187 -13z m374 -157 c51 -57 145 -207 140 -222 -6 -15 -31
-16 -209 -14 l-203 3 -3 114 c-2 75 1 118 9 127 9 11 41 14 128 14 109 0 119
-2 138 -22z"/>
<path d="M1506 2624 c-12 -30 -6 -93 10 -109 13 -13 40 -15 171 -13 l155 3 12
36 c7 20 23 50 35 68 l22 31 -199 0 c-173 0 -201 -2 -206 -16z"/>
<path d="M1999 2617 c-111 -59 -120 -223 -16 -294 66 -44 145 -39 209 15 91
76 72 229 -35 281 -56 27 -103 27 -158 -2z m142 -86 c50 -50 35 -124 -31 -151
-58 -24 -120 22 -120 88 0 45 46 92 90 92 22 0 41 -9 61 -29z"/>
<path d="M2934 2621 c-90 -41 -123 -152 -73 -242 54 -95 174 -114 261 -41 76
64 77 183 2 254 -55 51 -120 61 -190 29z m144 -96 c43 -50 22 -123 -42 -145
-63 -20 -116 21 -116 91 0 52 48 93 99 85 21 -3 45 -16 59 -31z"/>
<path d="M1905 2195 c-14 -13 -25 -33 -25 -44 0 -27 35 -59 74 -66 56 -11 66
-16 66 -31 0 -16 -65 -20 -75 -4 -9 15 -65 12 -65 -3 0 -37 85 -68 145 -53 35
9 65 41 65 69 0 33 -29 56 -87 71 -29 8 -48 18 -48 27 0 17 43 25 58 10 12
-12 67 -15 67 -3 -1 29 -46 52 -105 52 -35 0 -51 -6 -70 -25z"/>
<path d="M2130 2105 l0 -115 35 0 c35 0 35 0 35 45 l0 45 45 0 45 0 0 -45 c0
-45 0 -45 35 -45 l35 0 0 115 0 115 -35 0 c-35 0 -35 0 -35 -45 l0 -45 -45 0
-45 0 0 45 c0 45 0 45 -35 45 l-35 0 0 -115z"/>
<path d="M2420 2105 l0 -115 35 0 35 0 0 115 0 115 -35 0 -35 0 0 -115z"/>
</g>
</svg>
